<svg version="1" xmlns="http://www.w3.org/2000/svg" width="933.333" height="933.333" viewBox="0 0 700.000000 700.000000"><path d="M341.7 148.5c-.1.1-4.9.5-10.7.9-5.8.3-11.6.8-13 1-1.4.2-4.9.7-7.9 1.1-3 .3-6.3.9-7.5 1.1-1.2.3-3.2.7-4.6.9-22.3 3.8-52.1 13.9-75 25.4-20.5 10.4-45.1 27.1-59 40.1-.9.8-3.6 3.3-6.1 5.6-22.8 21-44.1 49.8-59.4 80.4-5.6 11.2-15.3 35.2-17 42.2l-.7 2.8h-81l.6 16.7c.3 9.3.8 17.9 1 19.3.2 1.4.7 5.2 1 8.5.3 3.3 1.1 8.7 1.6 12 .6 3.3 1.3 7.6 1.6 9.5.3 1.9 1.2 6.4 2 10 .9 3.6 1.8 7.6 2 9 2.6 13.2 13.3 43.9 21.5 61.5 1.8 3.8 3.3 7.2 3.3 7.5.3 1.3 12 22.5 16.6 30 23.6 38.2 57.1 74.1 93 99.6 9.5 6.8 23.9 16.4 24.6 16.4.2 0 2.1 1.1 4.2 2.3 11.5 7.3 37.2 19.4 55.2 26 8.2 3 25.1 8.5 28.4 9.1.6.2 3 .8 5.3 1.4 3.7 1.1 20.7 4.8 25.8 5.7 3.4.6 9.8 1.6 14 2.1 2.2.3 5.1.7 6.5 1 7.1 1.1 24.7 1.9 43 1.9 22.1 0 32.9-.7 48.8-3.1 2-.3 5.3-.7 7.2-1 32.8-4.2 83.9-22.1 115.5-40.4 2.2-1.2 5.8-3.3 8.1-4.6 8.6-4.8 30.2-19.8 40.5-28.1 6.3-5 22.3-19.6 29.4-26.8 31.5-31.7 58.1-72.2 74.7-113.3 3.5-8.9 11.6-32.3 12.2-35.5.2-1.2 1.3-5.5 2.4-9.5 1.2-4 2.1-7.5 2.1-7.7 0-.3.4-2.9 1-5.8.6-2.8 1.2-6.3 1.5-7.7 1.9-11.6 2.5-15.8 3.2-22.5.3-2.8.7-6.1.9-7.5.3-1.4.8-10 1.1-19.3l.6-16.7h-81.1l-1.6-5.8c-7.4-25.3-28.1-65.1-44.7-85.6-9.5-11.9-13.1-16-19.3-22.5-3.8-4-9-9.3-11.5-11.6-4.1-4-5.6-5.3-11.5-10.3-1.6-1.4-13-10.2-18-14-4.6-3.4-15.4-10.2-16.2-10.2-.6 0-1.3-.4-1.5-.9-.8-2.2-33.3-18-47.8-23.2-18.8-6.8-43.2-13-57.5-14.4-2.7-.3-5.9-.7-7-1-6-1.2-39.7-2.8-40.8-2zm37.3 19c2.5.3 5.6.8 7 1 1.4.3 4.5.7 7 1.1 2.5.3 6.1.9 8 1.4 1.9.5 4.9 1.2 6.7 1.5 7 1.2 27.5 7.6 39.6 12.4 46.7 18.5 83.6 47.2 116 90.1 4.1 5.4 7.7 11 7.7 11.8 0 .6.3 1.2.8 1.4 1.9.8 15.1 25.6 20.7 38.8 2.3 5.5 8.5 22 8.5 22.7 0 .2-38.5.3-85.5.3H430v-4.5c0-12.1-5.1-27.5-13.3-40-8-12.2-22.2-23.9-35.8-29.5-5.6-2.4-8.1-3.1-13.9-4.5-6.9-1.6-24.9-2.2-29-1-.8.2-3 .7-4.7 1-6.8 1.1-20.3 6.8-27.4 11.5-17.1 11.2-31.3 31.9-34.4 50.2-.3 1.8-.8 4.6-1.1 6.3-.3 1.6-.5 4.7-.6 6.7v3.8h-85.4c-47 0-85.4-.2-85.4-.4 0-.9 7.1-19.7 9.5-25.1 28.9-65.2 80.7-115 145.6-140.3 23-8.9 49.9-15.3 70.9-16.9 4.1-.3 7.7-.7 8-.9.6-.6 40.5.3 46 1.1z"/></svg>